<svg width="218" height="294" viewBox="0 0 218 294" fill="none" xmlns="http://www.w3.org/2000/svg">
<path d="M126.51 20.2536C127.08 17.4258 127.861 14.1618 130.104 12.1124C131.629 10.719 133.616 10.2085 135.669 10.3166C139.54 10.5209 143.122 12.4121 145.661 15.2276C148.33 18.1864 149.636 21.8672 149.349 25.8054C149.163 28.3507 148.188 30.3841 146.213 32.0601C147.119 32.867 148.002 33.6976 148.861 34.5518C158.232 43.9655 164.464 58.2125 168.904 70.4144C170.272 74.1751 172.005 78.3742 171.965 82.4039C172.485 85.0639 173.877 85.6613 175.43 87.6045C178.625 90.9293 180.988 95.7092 183.122 99.7455C184.302 102.023 185.44 104.321 186.537 106.638C187.635 108.955 188.69 111.29 189.703 113.642C190.716 115.996 191.687 118.365 192.615 120.751C193.544 123.137 194.429 125.539 195.271 127.955C196.113 130.371 196.911 132.801 197.666 135.245C198.421 137.688 199.131 140.144 199.797 142.612C200.464 145.08 201.086 147.559 201.663 150.048C202.241 152.537 202.773 155.035 203.261 157.543C203.977 161.163 204.385 164.823 204.992 168.459C206.062 174.867 207.487 181.721 207.266 188.242C206.914 198.593 206.084 211.499 197.788 219.045C196.209 220.481 193.895 222.344 191.956 223.252L189.153 222.818C187.495 224.486 185.742 225.806 183.792 227.129C184.88 233.924 180.829 247.98 178.259 254.664C176.913 258.164 175.239 261.573 173.505 264.904C172.767 266.323 171.92 267.648 170.986 268.952C170.422 269.738 169.519 270.699 169.121 271.56C168.687 272.497 170.284 273.295 169.291 274.622C166.427 278.451 146.341 282.543 140.907 283.136C137.029 283.559 133.101 282.948 129.282 283.462C129.156 283.479 129.03 283.492 128.904 283.507L128.677 283.538C125.33 281.782 123.197 282.906 120.37 279.884C119.018 279.536 116.806 279.539 116.039 278.352C115.494 277.508 115.415 276.433 115.673 275.484C116.316 273.119 118.849 271.451 120.938 270.342C122.797 269.356 124.745 268.677 126.799 268.205L126.717 267.579C125.292 261.976 127.908 253.954 126.812 247.774C120.715 249.415 114.213 249.642 107.947 248.858C105.245 248.52 102.212 247.592 99.4978 248.109C98.9966 248.503 99.0471 248.733 98.9163 249.333C98.9966 250.003 99.0709 250.666 99.1027 251.341C99.3786 254.407 100.146 258.823 99.1937 261.764C99.5804 264.084 97.8141 269.256 98.1766 270.158C100.522 270.471 103.172 271.229 104.692 273.135C105.178 273.745 105.482 274.467 105.382 275.249C105.234 276.415 104.514 277.039 103.59 277.688C103.265 277.916 102.938 278.14 102.608 278.36L99.9747 278.482C96.6023 281.471 90.0935 281.472 85.7691 281.257C81.273 281.034 63.5983 278.794 60.8101 275.953C60.489 275.625 60.5299 275.549 60.5573 275.126C61.4083 274.683 62.5069 275.167 63.3932 275.423C62.6142 274.244 62.1074 273.102 60.64 272.689C60.4612 272.577 60.2795 272.469 60.1086 272.346C56.7866 269.945 52.3923 259.107 51.0564 254.985C49.5838 250.44 48.0337 244.117 47.3259 239.408C46.8088 235.966 47.1939 232.428 46.6939 228.98L46.6466 228.666C42.707 228.401 41.7193 227.715 38.8762 225.064C37.7848 225.067 36.664 225.107 35.5928 224.876C32.0391 224.108 30.9902 221.849 29.2024 219.138C28.2171 218.868 27.2521 218.762 26.3705 218.212C20.9881 214.854 18.4452 206.667 17.1634 200.881C16.9467 199.903 16.4602 198.424 17.0767 197.538C17.3569 197.136 17.2464 197.378 17.382 196.948L16.6204 196.215C16.4523 195.653 16.5882 195.543 16.814 195.017L16.6904 194.651C16.6331 194.478 16.5835 194.302 16.5199 194.13C15.0437 190.133 16.5707 181.98 16.7854 177.65C16.8533 176.282 16.5612 174.908 16.6149 173.541C16.6804 171.882 17.4996 170.082 17.7421 168.397C19.9909 152.783 25.9683 134.238 33.8269 120.461C35.877 116.867 38.2968 113.712 40.5881 110.289C43.5488 105.865 46.2833 101.422 50.2389 97.7392C50.471 97.286 50.6606 97.046 51.0584 96.7203C51.1471 96.4997 51.3744 96.0388 51.3788 95.8217C51.3923 95.104 48.8112 88.9695 48.3986 87.5378C46.1402 79.7021 46.3569 67.5211 48.0489 59.5578C49.9471 50.6269 55.132 39.5655 63.1877 34.4289C62.3324 33.9238 61.4536 33.4225 60.6845 32.7967C60.5595 32.6967 60.437 32.5936 60.3173 32.4874C60.1975 32.3811 60.0805 32.2721 59.9663 32.1602C59.8521 32.0482 59.741 31.9335 59.6328 31.8159C59.5247 31.6985 59.4197 31.5785 59.3177 31.4557C59.2159 31.3332 59.1173 31.2082 59.022 31.0808C58.9263 30.9531 58.8342 30.8232 58.7457 30.6912C58.6569 30.5591 58.5718 30.425 58.4901 30.2887C58.4083 30.1525 58.3301 30.0144 58.2556 29.8743C58.1812 29.734 58.1103 29.5921 58.043 29.4486C57.9757 29.3049 57.9122 29.1596 57.8526 29.0128C57.793 28.866 57.7372 28.7179 57.6853 28.5685C57.6334 28.4189 57.5854 28.2682 57.5414 28.1165C57.4972 27.9645 57.4569 27.8116 57.4206 27.6578C57.3845 27.5038 57.3525 27.3491 57.3244 27.1938C57.296 27.0382 57.2719 26.8821 57.2521 26.7254C57.2319 26.5688 57.2159 26.4118 57.204 26.2544C56.9631 22.9632 58.3709 19.7896 60.5955 17.3715C63.1969 14.5437 67.5232 12.4396 71.4434 12.3253C73.3103 12.2706 75.2554 12.9522 76.583 14.2471C78.7865 16.3968 78.3517 19.1158 78.3668 21.88C81.4749 20.5215 84.5775 19.1417 87.8641 18.2365C97.6452 15.5428 109.621 15.9491 119.442 18.1768C121.831 18.7184 124.177 19.5221 126.51 20.2536ZM99.1027 251.341C98.6552 253.039 98.1599 260.106 99.0288 261.532C99.0781 261.613 99.1389 261.686 99.1937 261.764C100.146 258.823 99.3786 254.407 99.1027 251.341Z" fill="#BA9177"/>
<path d="M99.1027 251.341C99.3785 254.407 100.146 258.824 99.1937 261.764C99.1388 261.686 99.078 261.613 99.0288 261.532C98.1599 260.106 98.6551 253.04 99.1027 251.341Z" fill="#505050"/>
<path d="M68.2471 23.1521C68.786 23.5475 69.0611 23.969 69.1875 24.6145C69.6406 26.9259 69.3226 29.9546 68.0213 31.9536C67.6099 31.3774 67.3548 30.8533 67.1986 30.1624C66.6954 27.9316 67.0185 25.1162 68.2471 23.1521Z" fill="#EAD5AF"/>
<path d="M112.186 34.1793C112.753 34.3387 113.02 34.4685 113.33 35.0051C113.711 35.6657 113.922 36.6265 113.581 37.346C112.957 38.6622 111.994 37.6341 111.06 37.9644C111.002 37.9849 110.952 38.0218 110.897 38.0505C110.376 38.1416 109.994 38.1664 109.458 38.1105C108.974 37.7888 108.963 37.7814 108.781 37.2402C108.857 36.6179 109.011 36.2015 109.393 35.6902C110.232 34.5659 110.8 34.3643 112.186 34.1793Z" fill="#505050"/>
<path d="M84.1666 36.2643C84.6865 36.2353 85.1725 36.1891 85.6722 36.3741C86.3053 36.6078 87.0315 37.1316 87.2183 37.788C87.3097 38.1094 87.1972 38.4579 87.006 38.7258C86.2612 39.7699 85.0338 39.7493 83.8577 39.8982C83.376 40.0347 82.8546 40.2107 82.3585 40.2797C81.8792 40.3464 81.6288 40.1661 81.2703 39.897C81.1697 39.4597 81.1439 39.3066 81.3132 38.8685C81.8275 37.5372 82.9142 36.8459 84.1666 36.2643Z" fill="#505050"/>
<path d="M137.821 24.0849C138.334 24.0178 138.841 23.9488 139.358 24.0356C140.334 24.1992 141.345 25.1351 141.796 25.957C142.285 26.846 142.432 27.9095 142.122 28.8791C141.77 29.9767 141.009 30.5101 140.027 31.0576C139.508 31.07 138.974 31.0882 138.456 31.0413C137.583 30.9622 136.669 30.3326 136.149 29.67C136.081 29.5816 136.017 29.4901 135.958 29.3955C135.899 29.3009 135.845 29.2037 135.796 29.104C135.747 29.0042 135.703 28.9022 135.664 28.7981C135.626 28.6939 135.593 28.5882 135.565 28.4809C135.537 28.3734 135.515 28.265 135.498 28.1557C135.482 28.0461 135.47 27.936 135.465 27.8253C135.46 27.7147 135.46 27.6041 135.466 27.4935C135.471 27.3828 135.483 27.2729 135.5 27.1635C135.719 25.6771 136.622 24.906 137.821 24.0849Z" fill="#EAD5AF"/>
<path d="M98.1767 270.158C100.522 270.471 103.172 271.229 104.692 273.135C105.178 273.745 105.482 274.467 105.382 275.249C105.234 276.415 104.514 277.039 103.59 277.688C103.265 277.916 102.938 278.14 102.608 278.36L99.9748 278.482C96.6023 281.472 90.0935 281.472 85.7691 281.258C81.2731 281.034 63.5984 278.794 60.8102 275.953C60.489 275.625 60.53 275.549 60.5574 275.126C61.4084 274.683 62.5069 275.167 63.3933 275.423C67.8448 277.292 85.566 279.621 90.9171 279.544C90.5041 279.055 89.9846 278.667 89.8682 278.018L90.0939 277.761C91.2986 277.714 92.2024 278.397 93.1162 279.058C94.1254 279.022 95.3746 279.074 96.3209 278.711C96.8249 278.517 96.9938 278.346 97.2319 277.885C96.1274 276.442 93.8241 275.986 92.6989 274.619C92.5013 274.379 92.588 274.306 92.6321 274.03L93.0478 273.781C94.743 273.669 99.1242 276.78 100.656 277.776C101.305 277.394 102.325 276.844 102.708 276.195C104.066 273.893 98.807 272.191 98.1767 270.158Z" fill="#505050"/>
<path d="M75.5674 53.0581C75.5106 50.3954 75.639 48.3434 77.5357 46.2335C78.5361 45.1212 79.8664 44.1997 81.4324 44.1551C83.0508 44.109 84.5862 45.0367 85.7019 46.1071L85.9897 46.3537C86.0763 46.3514 86.163 46.3429 86.2496 46.3467C86.7834 46.3731 87.2512 46.6073 87.5851 47.0116C88.4193 48.022 88.3025 49.6999 88.0918 50.8905C87.7067 53.0705 86.5942 55.2021 84.6602 56.4404C83.4511 57.2146 82.0321 57.562 80.6041 57.2615C78.3028 56.7773 76.7312 54.9144 75.5674 53.0581Z" fill="#EAD5AF"/>
<path d="M85.702 46.1071L85.9897 46.3537C86.4643 47.1958 86.9679 48.2363 86.9607 49.2157C86.948 50.8579 86.5672 53.3729 85.3796 54.5651C84.8935 54.724 84.6745 54.8353 84.1892 54.543C83.6809 54.2375 83.3367 53.5447 83.1483 53.0162C82.5815 51.4267 82.6626 49.1346 83.4877 47.6381C84.0195 46.6743 84.6638 46.4153 85.702 46.1071Z" fill="#505050"/>
<path d="M127.179 245.357C127.265 244.224 127.252 242.391 127.915 241.444L128.249 241.401C129.628 242.99 128.792 257.326 128.547 260.18C128.354 262.426 128.073 265.692 126.717 267.579C125.292 261.976 127.908 253.954 126.812 247.774C120.715 249.415 114.213 249.642 107.947 248.858C105.246 248.52 102.212 247.592 99.4978 248.109C98.9966 248.503 99.0471 248.733 98.9163 249.333C98.7152 248.734 98.5471 248.141 98.406 247.525C94.6603 246.958 84.5855 246.401 81.9996 244.017L81.9324 243.602C82.7977 243.094 88.6833 244.456 89.9091 244.651C99.7252 246.22 117.528 247.779 127.179 245.357Z" fill="#505050"/>
<path d="M112.176 42.5043C114.302 42.4132 116.11 42.5275 117.936 43.7441C119.758 44.958 121.039 47.0136 121.349 49.1401C121.589 50.7905 121.247 52.5324 120.172 53.8583C118.863 55.4746 117.155 55.9298 115.163 56.1632C113.308 56.2791 110.965 55.9209 109.326 55.0706C109.131 54.9711 108.942 54.8622 108.758 54.7438C108.574 54.6257 108.397 54.4989 108.226 54.3635C108.055 54.228 107.892 54.0845 107.736 53.9328C107.58 53.7813 107.432 53.6226 107.293 53.4567C107.153 53.2907 107.022 53.1183 106.9 52.9395C106.779 52.7606 106.666 52.5763 106.563 52.3866C106.46 52.1967 106.367 52.0023 106.284 51.8035C106.201 51.6045 106.129 51.402 106.067 51.196C106.034 51.0859 106.004 50.9749 105.977 50.863C105.949 50.7513 105.925 50.639 105.904 50.5261C105.882 50.4131 105.864 50.2998 105.848 50.1861C105.833 50.0723 105.821 49.9582 105.811 49.8437C105.802 49.7292 105.795 49.6146 105.792 49.4998C105.788 49.3851 105.788 49.2703 105.79 49.1556C105.792 49.0408 105.798 48.9261 105.806 48.8113C105.815 48.6968 105.826 48.5826 105.841 48.4686C105.855 48.3546 105.873 48.2411 105.893 48.1282C105.913 48.015 105.937 47.9024 105.963 47.7905C105.989 47.6786 106.018 47.5674 106.05 47.4571C106.082 47.3465 106.117 47.2367 106.155 47.1279C106.193 47.0194 106.233 46.9117 106.277 46.805C106.32 46.6982 106.367 46.5926 106.416 46.4882C106.464 46.3838 106.516 46.2805 106.57 46.1785C106.625 46.0766 106.681 45.9762 106.741 45.8772C108.017 43.7806 109.875 43.0544 112.176 42.5043Z" fill="#EAD5AF"/>
<path d="M110.162 43.7395C110.692 43.7825 111.097 43.8566 111.563 44.1245C112.537 44.6835 113 46.1719 113.157 47.1811C113.507 49.4216 113.346 52.0974 111.982 53.9832C111.868 53.9971 111.754 54.0262 111.638 54.0254C111.021 54.0216 110.239 53.3838 109.96 52.8965C108.517 50.3815 109.429 46.3382 110.162 43.7395Z" fill="#505050"/>
<path d="M126.51 20.2536C127.08 17.4258 127.861 14.1618 130.104 12.1124C131.629 10.719 133.616 10.2085 135.669 10.3166C139.54 10.5209 143.122 12.4121 145.661 15.2276C148.33 18.1864 149.636 21.8672 149.349 25.8054C149.163 28.3507 148.188 30.3841 146.213 32.0601C147.119 32.867 148.002 33.6976 148.861 34.5518C158.232 43.9655 164.464 58.2125 168.904 70.4144C170.272 74.1751 172.005 78.3742 171.965 82.4039C169.201 77.9939 168.115 72.7825 166.226 68.0026C163.897 62.1119 161.033 56.1387 158.062 50.533C155.74 46.1505 152.669 41.5497 149.419 37.7624C147.316 35.3121 144.749 33.0802 142.982 30.3861C143.71 30.9362 144.475 31.4677 145.155 32.0737C146.95 28.3026 147.84 24.9742 146.357 20.9255C145.3 18.0399 142.93 14.8057 139.998 13.5566C137.697 12.5757 134.325 12.4028 132.016 13.3845C130.869 13.8718 129.723 14.755 129.253 15.918C128.261 18.3749 129.116 20.6673 127.772 23.4971C120.363 19.9047 116.76 19.4015 108.668 18.6924C98.6949 17.8185 91.57 18.7688 82.0954 21.856C80.368 22.4189 78.7297 23.0307 77.3183 24.1864L77.0583 24.1116C75.9721 21.9281 80.2162 17.3122 75.1303 14.187C70.9295 13.9765 66.2387 15.3838 63.0904 18.1954C60.8431 20.2021 59.6142 23.0051 59.4918 25.9504C59.4027 28.0886 59.917 30.2686 61.4954 31.8353C62.7207 33.0526 63.9266 33.6101 65.6302 33.8315C56.7489 40.1001 51.1832 51.6767 49.5068 62.0499C49.0421 64.9251 48.7142 68.0545 48.653 70.9595C48.6331 71.8989 49.0568 72.8053 49.023 73.7219C48.9956 74.4596 48.6164 75.1389 48.6216 75.893C48.6443 79.3958 49.2524 84.5064 50.1518 87.9165C50.632 89.7375 51.3752 91.495 51.8228 93.3222C52.0505 94.2515 52.4456 95.7964 51.5747 96.511C51.345 96.6998 51.3522 96.661 51.0584 96.7203C51.1471 96.4997 51.3744 96.0388 51.3788 95.8216C51.3923 95.104 48.8112 88.9695 48.3986 87.5378C46.1403 79.7021 46.3569 67.5211 48.0489 59.5578C49.9471 50.6269 55.132 39.5655 63.1878 34.4289C62.3324 33.9238 61.4536 33.4225 60.6845 32.7967C60.5595 32.6967 60.4371 32.5936 60.3173 32.4874C60.1975 32.3811 60.0805 32.2721 59.9663 32.1601C59.8521 32.0482 59.741 31.9335 59.6329 31.8159C59.5248 31.6985 59.4197 31.5785 59.3177 31.4557C59.2159 31.3332 59.1174 31.2082 59.022 31.0808C58.9263 30.9531 58.8342 30.8232 58.7457 30.6912C58.657 30.5591 58.5718 30.425 58.4902 30.2887C58.4083 30.1525 58.3301 30.0144 58.2557 29.8743C58.1812 29.734 58.1103 29.5921 58.043 29.4486C57.9757 29.3049 57.9123 29.1596 57.8526 29.0128C57.793 28.866 57.7372 28.7179 57.6853 28.5685C57.6334 28.4189 57.5854 28.2682 57.5414 28.1165C57.4972 27.9645 57.4569 27.8116 57.4206 27.6578C57.3846 27.5038 57.3525 27.3491 57.3244 27.1938C57.2961 27.0382 57.2719 26.8821 57.2521 26.7254C57.2319 26.5688 57.2159 26.4118 57.204 26.2544C56.9631 22.9632 58.3709 19.7896 60.5955 17.3715C63.1969 14.5437 67.5233 12.4396 71.4434 12.3253C73.3103 12.2706 75.2555 12.9522 76.583 14.2471C78.7865 16.3968 78.3517 19.1158 78.3668 21.88C81.4749 20.5215 84.5775 19.1417 87.8641 18.2365C97.6452 15.5428 109.621 15.9491 119.442 18.1768C121.831 18.7184 124.177 19.5221 126.51 20.2536Z" fill="#505050"/>
<path d="M89.0712 56.628C90.3383 55.9864 91.6408 55.4211 93.012 55.0264C96.4238 54.0444 99.8797 54.5961 102.976 56.2252C104.978 56.2628 106.971 57.1991 108.333 58.6103C111.501 61.8929 112.746 68.3616 112.484 72.7127C112.319 75.4394 111.119 77.8861 109.027 79.7036C105.637 82.649 100.485 83.8089 96.0462 83.4674C92.5172 83.1956 88.758 82.0399 86.4265 79.2938C83.9086 76.3291 83.5377 72.3115 83.9638 68.6287C84.3374 65.4031 84.7357 60.5092 87.5891 58.3874C87.6546 58.3385 87.727 58.2994 87.7957 58.2556C88.3331 57.8109 88.688 57.1983 89.0712 56.628Z" fill="#EAD5AF"/>
<path d="M89.0712 56.628C90.3383 55.9864 91.6408 55.4211 93.0121 55.0264C96.4239 54.0444 99.8798 54.5961 102.976 56.2252C103.113 57.9252 102.637 58.7072 101.521 59.9762L101.39 60.1235C98.1341 61.2032 93.1241 62.9094 89.7771 61.2486C89.0255 60.8756 88.1694 60.1576 87.9532 59.326C87.8625 58.9794 87.8312 58.6107 87.7958 58.2556C88.3331 57.8109 88.6881 57.1983 89.0712 56.628Z" fill="#505050"/>
<path d="M94.9314 55.9185C95.2279 55.903 95.5359 55.8774 95.8336 55.8926C96.2963 55.9166 96.6639 55.9065 96.9795 56.243L96.7609 56.6365C95.5089 57.4081 94.6897 57.5755 93.2116 57.6162C92.4604 57.6174 91.3363 57.7236 90.7171 57.2828L90.8674 56.9839C92.1305 56.1585 93.4616 56.0868 94.9314 55.9185Z" fill="#FEFEFE"/>
<path d="M50.2389 97.7393C50.2174 98.9822 46.302 103.566 45.3382 105.028C42.6529 109.151 40.2152 113.409 38.0249 117.801C31.4191 131.154 25.4603 145.384 22.3987 159.957C21.7461 163.063 21.51 166.253 20.9933 169.382C20.6749 171.311 20.0402 173.185 19.7397 175.114C18.2615 184.599 18.446 194.003 20.7326 203.354C21.7417 207.48 23.223 212.891 26.3117 216.065C26.5554 216.315 26.8209 216.543 27.0919 216.764L27.3161 216.699C27.6273 214.478 25.1857 211.184 26.0208 209.252L26.3825 209.21C27.4377 210.163 27.8761 212.155 28.3137 213.447C29.6396 217.359 31.743 221.774 35.8639 223.536L36.2574 223.456C36.8067 221.463 30.6063 214.406 32.3483 213.141C35.2717 214.217 35.2542 223.77 45.9817 227.349C43.3644 223.941 40.5158 220.446 38.8166 216.488C38.4955 215.74 38.3059 213.058 38.1004 212.77C38.0563 212.708 37.6962 212.666 37.6382 212.601C37.0292 211.918 36.6294 209.169 36.4001 208.237C35.5392 204.736 34.6055 200.958 34.2585 197.382C34.1286 196.043 34.2872 194.69 34.1763 193.35C34.0725 192.101 33.7422 190.881 33.6755 189.625C33.4453 185.291 33.8778 180.9 34.2089 176.583C34.3678 174.511 34.3376 172.426 34.6385 170.366C37.0976 153.517 40.9144 137.137 47.3501 121.28C48.1184 119.387 48.5675 117.305 49.5318 115.5L49.8589 115.379C50.3704 116.309 48.2885 123.572 47.8394 125.012C47.4089 126.392 46.4813 127.633 46.0902 128.991C45.7837 130.056 45.8461 131.709 45.4761 133.092C44.6911 136.026 43.6649 138.925 42.9896 141.882C42.4824 144.103 42.2817 146.391 41.85 148.627C38.5436 165.764 35.9259 187.267 40.4486 204.36C41.6016 208.718 43.5285 212.867 45.5393 216.906C47.2631 220.37 49.2973 223.584 51.7798 226.579C53.2786 228.388 54.9289 230.082 56.3633 231.939L56.1579 232.165C53.9082 232.22 51.4002 229.835 49.3605 228.967C49.1816 241.323 52.5235 254.16 57.2986 265.544C58.3169 267.971 59.303 270.408 60.64 272.689C60.4612 272.577 60.2795 272.469 60.1086 272.346C56.7866 269.945 52.3923 259.107 51.0564 254.985C49.5838 250.44 48.0337 244.117 47.3259 239.408C46.8088 235.966 47.1939 232.428 46.6939 228.98L46.6466 228.666C42.707 228.401 41.7193 227.715 38.8762 225.064C37.7848 225.067 36.664 225.107 35.5928 224.876C32.0391 224.108 30.9902 221.849 29.2024 219.138C28.2171 218.868 27.2521 218.762 26.3705 218.212C20.9881 214.854 18.4452 206.667 17.1634 200.881C16.9467 199.903 16.4602 198.425 17.0767 197.538C17.3569 197.136 17.2464 197.379 17.382 196.948L16.6204 196.215C16.4523 195.653 16.5882 195.543 16.814 195.017L16.6904 194.651C16.6331 194.478 16.5835 194.302 16.5199 194.13C15.0437 190.133 16.5707 181.98 16.7854 177.65C16.8533 176.282 16.5612 174.908 16.6149 173.541C16.6804 171.882 17.4996 170.082 17.7421 168.398C19.9909 152.783 25.9683 134.238 33.8269 120.461C35.877 116.867 38.2968 113.712 40.5881 110.289C43.5488 105.865 46.2833 101.422 50.2389 97.7393Z" fill="#505050"/>
<path d="M175.43 87.6045C178.625 90.9294 180.988 95.7093 183.122 99.7456C184.302 102.023 185.44 104.321 186.537 106.638C187.635 108.955 188.69 111.29 189.703 113.642C190.716 115.996 191.687 118.365 192.615 120.751C193.544 123.137 194.429 125.539 195.271 127.955C196.113 130.371 196.911 132.801 197.666 135.245C198.421 137.688 199.131 140.144 199.797 142.612C200.464 145.08 201.086 147.559 201.663 150.048C202.241 152.537 202.773 155.035 203.261 157.543C203.977 161.163 204.385 164.823 204.992 168.459C206.062 174.867 207.487 181.721 207.266 188.242C206.914 198.594 206.084 211.499 197.788 219.045C196.209 220.481 193.895 222.344 191.956 223.252L189.153 222.818C187.495 224.486 185.742 225.806 183.792 227.129C184.88 233.924 180.829 247.98 178.259 254.664C176.913 258.164 175.239 261.573 173.505 264.904C172.767 266.323 171.92 267.648 170.986 268.952C170.422 269.738 169.519 270.699 169.121 271.56C168.687 272.497 170.284 273.295 169.291 274.622C166.427 278.451 146.341 282.543 140.907 283.136C137.029 283.559 133.101 282.948 129.282 283.462C129.156 283.479 129.03 283.492 128.904 283.507L128.677 283.538C125.33 281.782 123.197 282.906 120.37 279.884C119.018 279.536 116.806 279.539 116.039 278.352C115.494 277.508 115.415 276.433 115.673 275.484C116.316 273.119 118.849 271.451 120.938 270.342C122.797 269.356 124.745 268.677 126.799 268.205L127.341 268.909C127.353 269.07 127.434 269.24 127.377 269.391C127.055 270.245 118.008 273.367 117.026 276.188C116.883 276.601 116.821 276.979 117.072 277.367C117.538 278.09 118.695 278.342 119.496 278.43C121.679 278.67 123.172 276.053 124.792 274.821C125.645 274.172 126.555 273.46 127.689 273.59C128.108 273.87 128.15 273.891 128.331 274.35C127.77 275.324 125.948 276.071 125.027 276.898C124.06 277.766 123.409 278.755 122.752 279.847C124.397 280.518 126.064 281.058 127.759 281.593C128.684 279.531 130.435 277.159 132.631 276.274C133.069 276.098 133.18 275.997 133.625 276.179C133.503 277.764 130.775 279.082 130.186 280.788C130.261 281.348 130.278 281.362 130.684 281.768C130.951 281.784 131.204 281.797 131.472 281.777C135.315 281.492 139.081 280.51 142.847 279.793C146.651 279.069 150.536 278.435 154.286 277.477C156.587 276.888 166.979 273.416 168.23 272.02L168.047 271.468C168.281 270.26 169.03 269.095 169.555 267.982C170.72 265.517 171.827 263.016 173.055 260.581C173.756 259.191 174.673 257.826 175.259 256.393C176.145 254.228 176.182 250.593 177.844 248.892C178.54 248.849 178.411 249.335 179.054 249.387C178.825 249.02 178.099 248.134 178.036 247.764C177.955 247.287 178.461 245.897 178.564 245.364C179.138 242.367 181.464 231.084 181.304 228.507C181.25 227.633 180.409 227.37 180.257 226.598C180.003 225.309 180.337 223.946 179.737 222.711L179.404 222.605C178.673 223.01 178.145 224.15 177.596 224.811C176.926 225.112 175.989 225.458 175.238 225.332C174.751 225.25 174.327 225.061 174.057 224.638C173.168 223.242 174.276 220.691 174.532 219.146C173.44 219.774 172.098 220.998 170.866 221.174C170.328 221.252 170.044 221.058 169.617 220.78C167.696 217.71 171.121 212.048 171.186 208.651C171.229 206.425 167.854 203.654 166.342 202.151C164.483 194.905 164.807 186.9 164.525 179.479C164.415 176.592 164.111 173.759 163.908 170.883C163.537 165.621 163.24 160.363 162.815 155.1C162.389 149.83 162.239 144.493 161.642 139.239C161.452 137.568 161.093 135.918 160.868 134.25C160.483 131.39 160.601 128.562 159.79 125.754C158.11 125.345 155.315 124.494 154.21 123.087C153.95 122.757 153.954 122.745 154.028 122.322C155.338 121.191 157.207 123.545 158.461 124.01C158.947 124.19 159.597 124.183 160.114 124.201L160.459 124.212C160.607 124.412 160.613 124.405 160.744 124.667C161.927 127.03 166.668 156.608 166.115 158.362C166 158.725 165.947 159.098 165.879 159.472C167.52 161.234 166.144 163.095 166.826 164.987C168.007 168.265 167.582 172.343 167.868 175.831C168.018 177.661 168.323 179.476 168.46 181.307C168.612 183.359 168.536 185.424 168.691 187.476C168.908 190.36 169.259 193.198 169.139 196.096C169.103 196.149 169.066 196.201 169.03 196.255C168.975 196.338 168.925 196.426 168.866 196.507C168.237 197.384 168.177 198.54 168.267 199.597C168.539 202.809 172.059 204.624 172.533 207.804C173.116 211.708 170.164 215.811 170.071 219.769C170.399 219.904 170.391 219.94 170.737 219.938C174.051 219.912 175.918 212.283 177.948 210.123C178.01 210.057 178.073 209.992 178.136 209.927C177.794 212.387 176.851 214.573 176.314 216.959C176.134 217.762 176.307 218.578 176.237 219.387C176.157 220.312 175.565 221.321 175.228 222.187C175.022 222.718 174.768 223.384 175.02 223.913C176.262 223.898 178.38 221.895 179.14 220.992C179.516 220.546 179.883 219.813 180.302 219.443C180.387 219.369 180.953 219.282 181.097 219.247C181.69 218.625 181.647 217.303 181.932 216.493C182.228 215.651 183.041 214.522 183.876 214.152C184.302 214.328 184.334 214.373 184.596 214.748C184.81 216.298 183.55 217.998 182.797 219.318C182.892 220.312 183.003 221.254 182.82 222.246C182.735 222.71 182.649 223.173 182.584 223.641C182.498 224.258 182.417 224.908 182.826 225.429L183.283 225.485C186.22 224.265 188.922 219.575 190.261 216.902C190.897 215.633 191.355 214.277 192.026 213.027C192.308 212.501 192.577 212.218 193.152 212.035C194.513 214.363 189.895 220.534 190.254 221.919C190.913 222.168 191.531 221.979 192.174 221.734C197.775 219.599 201.933 208.653 202.863 203.267C203.116 201.805 202.894 198.575 203.491 197.442C203.637 197.165 203.763 196.897 203.887 196.61C203.639 196.189 203.465 195.897 203.385 195.409C203.611 195.022 203.52 195.142 203.771 194.831C203.824 194.765 203.879 194.701 203.934 194.636L203.905 194.459C203.648 192.794 203.889 193.655 204.538 192.789C204.442 192.767 204.342 192.756 204.249 192.723C204.242 192.721 203.785 192.493 203.765 192.47C203.676 192.369 202.782 182.178 202.652 180.939C200.742 162.783 196.433 145.147 191.093 127.678C189.748 123.277 188.62 118.864 186.978 114.542C186.407 113.039 185.691 111.59 185.106 110.092C183.899 107.003 182.849 103.935 181.498 100.892C179.527 96.4467 177.312 92.0828 175.43 87.6045Z" fill="#505050"/>
</svg>
